<?xml version="1.0" encoding="UTF-8" standalone="no"?>
<svg
   xmlns:svg="http://www.w3.org/2000/svg"
   xmlns="http://www.w3.org/2000/svg"
   xmlns:sodipodi="http://sodipodi.sourceforge.net/DTD/sodipodi-0.dtd"
   xmlns:inkscape="http://www.inkscape.org/namespaces/inkscape"
   sodipodi:docname="code.svg"
   inkscape:version="1.1-dev (a41a1eaca7, 2020-05-21)"
   id="svg851"
   version="1.1"
   viewBox="0 0 100 100"
   height="100mm"
   width="100mm">
  <defs
     id="defs847">
    <inkscape:path-effect
       fuse_tolerance="0"
       hide_knot="false"
       vertical_pattern="false"
       prop_units="false"
       tang_offset="0"
       normal_offset="0"
       spacing="0"
       scale_y_rel="false"
       prop_scale="0.0386845"
       copytype="single_stretched"
       pattern="M 0,5 C 0,2.24 2.24,0 5,0 7.76,0 10,2.24 10,5 10,7.76 7.76,10 5,10 2.24,10 0,7.76 0,5 Z"
       lpeversion="1"
       is_visible="true"
       id="path-effect912"
       effect="skeletal" />
  </defs>
  <sodipodi:namedview
     inkscape:window-maximized="1"
     inkscape:window-y="28"
     inkscape:window-x="0"
     inkscape:window-height="941"
     inkscape:window-width="1920"
     fit-margin-bottom="0"
     fit-margin-right="0"
     fit-margin-left="0"
     fit-margin-top="0"
     showgrid="false"
     inkscape:current-layer="layer1"
     inkscape:document-units="mm"
     inkscape:cy="114.94753"
     inkscape:cx="189.33718"
     inkscape:zoom="0.98994949"
     inkscape:pageshadow="2"
     inkscape:pageopacity="0.0"
     borderopacity="1.0"
     bordercolor="#666666"
     pagecolor="#ffffff"
     id="base" />
  <g
     transform="translate(-24.82192,-15.368372)"
     id="layer1"
     inkscape:groupmode="layer"
     inkscape:label="Layer 1">
    <path
       d="m 77.102877,34.824942 a 4.8087479,10.000596 3.0274942 0 0 -5.195899,7.592405 4.8087479,10.000596 3.0274942 0 0 -0.169922,1.379836 l -0.0013,-2.52e-4 -1.66792,20.093049 -1.66792,20.093045 0.0013,2.53e-4 a 4.8087479,10.000596 3.0274942 0 0 -0.06082,1.399895 4.8087479,10.000596 3.0274942 0 0 3.798147,9.245995 4.8087479,10.000596 3.0274942 0 0 0.655902,0.08571 4.8087479,10.000596 3.0274942 0 0 5.124469,-8.98173 l 0.001,2.05e-4 1.667919,-20.09305 1.667921,-20.093048 -10e-4,-2.05e-4 A 4.8087479,10.000596 3.0274942 0 0 77.753075,34.979369 4.8087479,10.000596 3.0274942 0 0 77.102876,34.824945 Z"
       style="fill:#c33a2a;fill-opacity:1;stroke-width:0.189663"
       id="rect942" />
    <path
       d="m 60.64868,42.155857 a 4.945453,6.9030444 52.840402 0 0 -4.203345,0.915535 4.945453,6.9030444 52.840402 0 0 -0.827478,0.489534 l -9.68e-4,-0.0011 -11.540038,7.779692 -11.540068,7.780207 4.54e-4,0.0011 a 4.945453,6.9030444 52.840402 0 0 -0.769083,0.58672 4.945453,6.9030444 52.840402 0 0 -1.09833,1.124618 6.9030447,4.945453 41.709394 0 0 -1.129491,0.79662 6.9030447,4.945453 41.709394 0 0 -0.414183,0.538526 6.9030447,4.945453 41.709394 0 0 1.837673,7.445741 6.9030447,4.945453 41.709394 0 0 0.720373,0.646084 l -0.0011,9.71e-4 10.886659,8.671092 10.88669,8.670577 0.0011,-9.71e-4 a 6.9030447,4.945453 41.709394 0 0 0.785936,0.553707 6.9030447,4.945453 41.709394 0 0 7.285698,-0.179246 l 3.1e-5,-5.18e-4 a 6.9030447,4.945453 41.709394 0 0 0.376611,-0.568203 6.9030447,4.945453 41.709394 0 0 -2.683344,-7.874629 l 5.77e-4,-0.001 -10.886659,-8.671092 -7.103114,-5.657091 7.95153,-5.360356 11.540037,-7.779692 -4.54e-4,-0.0011 a 4.945453,6.9030444 52.840402 0 0 3.299821,-7.63669 4.945453,6.9030444 52.840402 0 0 -0.330899,-0.596961 4.945453,6.9030444 52.840402 0 0 -3.044639,-1.672079 z"
       style="fill:#e48d83;fill-opacity:1;stroke-width:0.1598"
       id="rect942-2" />
    <path
       id="rect942-2-9"
       style="fill:#e48d83;fill-opacity:1;stroke-width:0.1598"
       d="m 90.32861,42.949061 a 6.9030445,4.945453 37.764447 0 1 4.193444,0.959856 6.9030445,4.945453 37.764447 0 1 0.822265,0.498242 l 0.0011,-0.0011 11.457271,7.90108 11.45729,7.901595 -4.6e-4,0.0011 a 6.9030445,4.945453 37.764447 0 1 0.76284,0.594806 6.9030445,4.945453 37.764447 0 1 1.0864,1.13615 4.945453,6.9030448 48.895455 0 1 1.12102,0.808499 4.945453,6.9030448 48.895455 0 1 0.40848,0.542868 4.945453,6.9030448 48.895455 0 1 -1.91618,7.425927 4.945453,6.9030448 48.895455 0 1 -0.72715,0.638443 l 9.9e-4,0.0011 -10.97759,8.555684 -10.977611,8.555171 -0.0011,-0.0011 a 4.945453,6.9030448 48.895455 0 1 -0.791738,0.545379 4.945453,6.9030448 48.895455 0 1 -7.283398,-0.256148 l -2.6e-5,-5.29e-4 a 4.945453,6.9030448 48.895455 0 1 -0.370643,-0.572137 4.945453,6.9030448 48.895455 0 1 2.766322,-7.845864 l -5.18e-4,-0.0011 10.977582,-8.555683 7.16244,-5.581793 -7.8945,-5.443998 -11.457265,-7.901079 5.4e-4,-0.0011 a 6.9030445,4.945453 37.764447 0 1 -3.21924,-7.67099 6.9030445,4.945453 37.764447 0 1 0.337182,-0.593435 6.9030445,4.945453 37.764447 0 1 3.062121,-1.639845 z" />
  </g>
</svg>
