<?xml version="1.0" encoding="UTF-8" standalone="no"?>
<svg
   xmlns:svg="http://www.w3.org/2000/svg"
   xmlns="http://www.w3.org/2000/svg"
   xmlns:sodipodi="http://sodipodi.sourceforge.net/DTD/sodipodi-0.dtd"
   xmlns:inkscape="http://www.inkscape.org/namespaces/inkscape"
   inkscape:version="1.1-dev (a41a1eaca7, 2020-05-21)"
   sodipodi:docname="link.svg"
   id="svg1058"
   version="1.1"
   viewBox="0 0 62 62"
   height="62mm"
   width="62mm">
  <defs
     id="defs1054" />
  <sodipodi:namedview
     fit-margin-bottom="0"
     fit-margin-right="0"
     fit-margin-left="0"
     fit-margin-top="0"
     inkscape:window-maximized="1"
     inkscape:window-y="28"
     inkscape:window-x="0"
     inkscape:window-height="941"
     inkscape:window-width="1920"
     showgrid="false"
     inkscape:current-layer="layer1"
     inkscape:document-units="mm"
     inkscape:cy="119.69964"
     inkscape:cx="11.30253"
     inkscape:zoom="1.4"
     inkscape:pageshadow="2"
     inkscape:pageopacity="0.0"
     borderopacity="1.0"
     bordercolor="#666666"
     pagecolor="#ffffff"
     id="base" />
  <g
     transform="translate(-61.755076,-90.246188)"
     id="layer1"
     inkscape:groupmode="layer"
     inkscape:label="Layer 1">
    <path
       id="rect942-7"
       d="m 106.22696,92.299794 a 4.3917943,9.6238432 2.7891174 0 0 -4.74473,7.307363 4.3917943,9.6238432 2.7891174 0 0 -0.15517,1.328033 l -9.2e-4,-2.4e-4 -1.523092,19.33869 -1.523093,19.33868 0.0012,2.6e-4 a 4.3917943,9.6238432 2.7891174 0 0 -0.05553,1.34733 4.3917943,9.6238432 2.7891174 0 0 3.468345,8.89888 4.3917943,9.6238432 2.7891174 0 0 0.59895,0.0825 4.3917943,9.6238432 2.7891174 0 0 4.67952,-8.64452 l 9.1e-4,1.9e-4 1.52309,-19.3387 1.5231,-19.3387 -9.1e-4,-1.9e-4 a 4.3917943,9.6238432 2.7891174 0 0 -3.19764,-10.170967 4.3917943,9.6238432 2.7891174 0 0 -0.59375,-0.148626 z"
       style="fill:#ce3d2d;fill-opacity:1;stroke-width:0.177808" />
    <path
       inkscape:transform-center-y="-9.7027238"
       inkscape:transform-center-x="-6.8074621"
       d="m 120.19291,135.39761 a 9.1324504,4.6281049 1.2606741 0 0 -7.0844,-4.75955 9.1324504,4.6281049 1.2606741 0 0 -1.26442,-0.12004 l 2.1e-4,-9.4e-4 -18.388318,-0.97298 -18.388299,-0.97295 -2.06e-4,9.4e-4 a 9.1324504,4.6281049 1.2606741 0 0 -1.279468,-0.014 9.1324504,4.6281049 1.2606741 0 0 -8.325409,3.94417 9.1324504,4.6281049 1.2606741 0 0 -0.05866,0.63364 9.1324504,4.6281049 1.2606741 0 0 8.350267,4.64717 l -1.5e-4,9.4e-4 18.388294,0.973 18.388339,0.97296 1.3e-4,-9.3e-4 a 9.1324504,4.6281049 1.2606741 0 0 9.54052,-3.70083 9.1324504,4.6281049 1.2606741 0 0 0.12155,-0.63031 z"
       style="fill:#d95d4f;fill-opacity:1;stroke-width:0.177808"
       id="rect942-0-4" />
    <path
       id="rect942"
       style="fill:#dc6b5e;fill-opacity:1;stroke-width:0.177808"
       d="m 85.769839,92.371841 a 4.3917943,9.6238432 2.7891174 0 0 -4.744736,7.307364 4.3917943,9.6238432 2.7891174 0 0 -0.155167,1.328035 l -0.0012,-2.4e-4 -1.523094,19.3387 -1.523092,19.33868 0.0012,2.4e-4 a 4.3917943,9.6238432 2.7891174 0 0 -0.05553,1.34734 4.3917943,9.6238432 2.7891174 0 0 3.468352,8.89887 4.3917943,9.6238432 2.7891174 0 0 0.598949,0.0825 4.3917943,9.6238432 2.7891174 0 0 4.679507,-8.64453 l 9.14e-4,2e-4 1.523092,-19.3387 1.523095,-19.3387 -9.14e-4,-1.9e-4 A 4.3917943,9.6238432 2.7891174 0 0 86.363579,92.520471 4.3917943,9.6238432 2.7891174 0 0 85.769838,92.371845 Z" />
    <path
       id="rect942-0"
       style="fill:#c13a2a;fill-opacity:1;stroke-width:0.177808"
       d="m 121.78615,114.076 a 9.1326855,4.6279858 1.828062 0 0 -7.04309,-4.8272 9.1326855,4.6279858 1.828062 0 0 -1.26332,-0.13213 l 2e-4,-9.4e-4 -18.379179,-1.14897 -18.379151,-1.14897 -2.16e-4,9.4e-4 a 9.1326855,4.6279858 1.828062 0 0 -1.279282,-0.0271 9.1326855,4.6279858 1.828062 0 0 -8.359057,3.86431 9.1326855,4.6279858 1.828062 0 0 -0.06412,0.63306 9.1326855,4.6279858 1.828062 0 0 8.309872,4.72691 l -1.6e-4,9.4e-4 18.379157,1.14899 18.379196,1.14896 1.7e-4,-9.3e-4 a 9.1326855,4.6279858 1.828062 0 0 9.572,-3.60933 9.1326855,4.6279858 1.828062 0 0 0.12699,-0.62911 z" />
  </g>
  <g
     transform="translate(-61.755076,-90.246188)"
     inkscape:label="Layer 2"
     id="layer2"
     inkscape:groupmode="layer">
    <path
       d="m 106.22602,92.299533 a 4.3917943,9.6238423 2.7891174 0 0 -4.74488,7.307263 4.3917943,9.6238423 2.7891174 0 0 -0.15479,1.327964 h -9.2e-4 l -1.523268,19.33848 -0.03162,0.40386 h 8.825828 l 1.42229,-18.05777 h -9.2e-4 a 4.3917943,9.6238423 2.7891174 0 0 -3.19751,-10.171085 4.3917943,9.6238423 2.7891174 0 0 -0.59364,-0.148712 z"
       style="fill:#ce3d2d;fill-opacity:1;stroke-width:0.177808"
       id="rect942-7-2" />
  </g>
</svg>
