<?xml version="1.0" encoding="UTF-8" standalone="no"?>
<svg
   xmlns:svg="http://www.w3.org/2000/svg"
   xmlns="http://www.w3.org/2000/svg"
   xmlns:sodipodi="http://sodipodi.sourceforge.net/DTD/sodipodi-0.dtd"
   xmlns:inkscape="http://www.inkscape.org/namespaces/inkscape"
   sodipodi:docname="moon.svg"
   inkscape:version="1.1-dev (a41a1eaca7, 2020-05-21)"
   id="svg1301"
   version="1.1"
   viewBox="0 0 100 100"
   height="100mm"
   width="100mm">
  <defs
     id="defs1297" />
  <sodipodi:namedview
     inkscape:window-maximized="1"
     inkscape:window-y="28"
     inkscape:window-x="0"
     inkscape:window-height="941"
     inkscape:window-width="1920"
     fit-margin-bottom="0"
     fit-margin-right="0"
     fit-margin-left="0"
     fit-margin-top="0"
     showgrid="false"
     inkscape:current-layer="layer1"
     inkscape:document-units="mm"
     inkscape:cy="158.5965"
     inkscape:cx="92.13372"
     inkscape:zoom="1.4"
     inkscape:pageshadow="2"
     inkscape:pageopacity="0.0"
     borderopacity="1.0"
     bordercolor="#666666"
     pagecolor="#ffffff"
     id="base" />
  <g
     transform="translate(-43.372371,-16.755049)"
     id="layer1"
     inkscape:groupmode="layer"
     inkscape:label="Layer 1">
    <path
       d="m 99.8884,21.383654 -3.250449,8.225854 -8.619112,1.986443 6.819223,5.63273 -0.774113,8.810831 7.464141,-4.744413 8.14059,3.459221 -2.20555,-8.565369 5.80533,-6.672977 -8.82788,-0.548804 z M 87.57649,23.05487 A 45.340725,44.43608 82.8928 0 0 55.685931,63.366104 45.340725,44.43608 82.8928 0 0 95.308317,111.64894 45.340725,44.43608 82.8928 0 0 131.69318,98.548453 43.842643,44.182323 82.8928 0 1 107.983,102.54511 43.842643,44.182323 82.8928 0 1 68.765753,55.970174 43.842643,44.182323 82.8928 0 1 87.57649,23.05487 Z"
       style="fill:#dd7063;fill-opacity:1;stroke-width:0.264583"
       id="path1360" />
  </g>
</svg>
