<?xml version="1.0" encoding="UTF-8" standalone="no"?>
<svg
   xmlns:svg="http://www.w3.org/2000/svg"
   xmlns="http://www.w3.org/2000/svg"
   xmlns:sodipodi="http://sodipodi.sourceforge.net/DTD/sodipodi-0.dtd"
   xmlns:inkscape="http://www.inkscape.org/namespaces/inkscape"
   sodipodi:docname="sun.svg"
   inkscape:version="1.1-dev (a41a1eaca7, 2020-05-21)"
   id="svg1406"
   version="1.1"
   viewBox="0 0 105 105"
   height="105mm"
   width="105mm">
  <defs
     id="defs1402" />
  <sodipodi:namedview
     inkscape:window-maximized="1"
     inkscape:window-y="28"
     inkscape:window-x="0"
     inkscape:window-height="941"
     inkscape:window-width="1920"
     fit-margin-bottom="0"
     fit-margin-right="0"
     fit-margin-left="0"
     fit-margin-top="0"
     showguides="false"
     showgrid="false"
     inkscape:current-layer="layer1"
     inkscape:document-units="mm"
     inkscape:cy="197.30531"
     inkscape:cx="5.7285973"
     inkscape:zoom="0.98994949"
     inkscape:pageshadow="2"
     inkscape:pageopacity="0.0"
     borderopacity="1.0"
     bordercolor="#666666"
     pagecolor="#ffffff"
     id="base" />
  <g
     transform="translate(-47.7168,-9.1963941)"
     id="layer1"
     inkscape:groupmode="layer"
     inkscape:label="Layer 1">
    <path
       d="m 78.845355,17.376822 -8.818698,18.868852 -15.124049,12.73147 3.998899,11.071088 -5.008569,10.71609 14.021705,14.238003 7.101997,19.662145 11.663168,-0.60745 8.170038,8.29595 17.489124,-9.63239 19.50902,-1.01577 2.96475,-11.361705 10.30242,-5.674051 -3.46134,-20.540493 5.20361,-19.940523 -9.68189,-6.634567 -1.9518,-11.582891 -19.22781,-2.930755 -16.693273,-11.439604 -8.946422,7.53103 z"
       inkscape:transform-center-y="-0.9831278"
       inkscape:transform-center-x="-2.3369192"
       style="fill:#e48d83;fill-opacity:1;stroke-width:0.100059"
       id="path1483-2" />
    <path
       style="fill:#ffffff;fill-opacity:1;stroke-width:0.27581"
       id="path1465-4"
       sodipodi:type="arc"
       sodipodi:cx="101.31756"
       sodipodi:cy="63.550419"
       sodipodi:rx="30.407278"
       sodipodi:ry="31.913445"
       sodipodi:start="0.2731929"
       sodipodi:end="0.11296801"
       sodipodi:open="true"
       sodipodi:arc-type="arc"
       d="M 130.59716,72.160899 A 30.407278,31.913445 0 0 1 94.29255,94.600493 30.407278,31.913445 0 0 1 71.475314,57.426771 30.407278,31.913445 0 0 1 105.95247,32.009895 30.407278,31.913445 0 0 1 131.53102,67.147954" />
    <path
       d="M 128.12193,71.346414 A 27.836718,28.894678 0 0 1 94.886428,91.663395 27.836718,28.894678 0 0 1 73.998108,58.006021 27.836718,28.894678 0 0 1 105.56065,34.993386 27.836718,28.894678 0 0 1 128.97684,66.807655"
       sodipodi:arc-type="arc"
       sodipodi:open="true"
       sodipodi:end="0.11296801"
       sodipodi:start="0.2731929"
       sodipodi:ry="28.894678"
       sodipodi:rx="27.836718"
       sodipodi:cy="63.550419"
       sodipodi:cx="101.31756"
       sodipodi:type="arc"
       id="path1465"
       style="fill:#d8594c;fill-opacity:1;stroke-width:0.251103" />
  </g>
</svg>
