<?xml version="1.0" encoding="UTF-8" standalone="no"?>
<svg
   xmlns:svg="http://www.w3.org/2000/svg"
   xmlns="http://www.w3.org/2000/svg"
   xmlns:sodipodi="http://sodipodi.sourceforge.net/DTD/sodipodi-0.dtd"
   xmlns:inkscape="http://www.inkscape.org/namespaces/inkscape"
   inkscape:version="1.1-dev (a41a1eaca7, 2020-05-21)"
   sodipodi:docname="icon.svg"
   id="svg6"
   version="1.1"
   viewBox="0 0 79.375 79.375"
   height="79.375mm"
   width="79.375mm">
  <defs
     id="defs2" />
  <sodipodi:namedview
     inkscape:window-maximized="1"
     inkscape:window-y="28"
     inkscape:window-x="0"
     inkscape:window-height="941"
     inkscape:window-width="1920"
     fit-margin-bottom="0"
     fit-margin-right="0"
     fit-margin-left="0"
     fit-margin-top="0"
     showgrid="false"
     inkscape:current-layer="layer2"
     inkscape:document-units="mm"
     inkscape:cy="138.90821"
     inkscape:cx="35.929239"
     inkscape:zoom="1.979899"
     inkscape:pageshadow="2"
     inkscape:pageopacity="0.0"
     borderopacity="1.0"
     bordercolor="#666666"
     pagecolor="#ffffff"
     id="base" />
  <g
     style="display:inline"
     inkscape:label="Layer 1"
     id="layer2"
     inkscape:groupmode="layer">
    <path
       transform="scale(0.26458333)"
       d="M 150,0 A 150,150 0 0 0 0,150 150,150 0 0 0 125.33008,297.87305 c -0.50709,-0.46615 -2.85631,-1.1768 -5.83985,-1.72657 -9.17185,-1.68997 -22.641589,-6.26782 -33.83398,-11.49804 C 77.805756,280.97988 76,279.73141 76,277.96875 c 0,-2.96723 4.482183,-19.58232 7.019531,-26.01953 5.683503,-14.41924 18.079609,-29.3574 35.980469,-43.35938 4.12501,-3.22658 11.45214,-9.83364 16.2832,-14.68164 10.01004,-10.0453 12.83094,-15.17784 15.0586,-27.4082 5.71151,-31.35763 17.53228,-66.897941 25.70898,-77.292969 C 177.43734,87.444286 178,85.168147 178,81.3125 c 0,-6.282259 2.52604,-18.281018 4.38281,-20.820312 1.67354,-2.28869 4.40199,-0.892541 7.70117,3.939453 4.3804,6.415525 5.77388,5.85517 8.49805,-3.417969 C 200.74505,53.650699 202.73219,50 204.58008,50 c 2.13184,0 6.30941,9.571392 7.1914,16.476562 l 0.72852,5.699219 10.70703,2.751953 c 14.34482,3.685837 17.56077,5.918032 21.12891,14.679688 1.92355,4.723328 4.41694,8.536554 7.92578,12.117188 l 5.11914,5.22461 -1.79297,5.77539 C 251.45124,126.04909 249.13266,128 237.43555,128 c -6.61769,0 -16.7254,2.27024 -19.29102,4.33203 -2.64521,2.12574 -0.76762,10.60965 6.13281,27.69922 8.0134,19.84581 9.71014,25.85966 10.42383,36.96875 0.88812,13.82362 -4.18915,28.94309 -14.04687,41.83789 -7.01526,9.17654 -8.33429,12.95221 -10.73633,30.72461 -1.18473,8.76559 -2.48118,16.6125 -2.88086,17.4375 -0.88124,1.81909 -16.98569,7.3905 -26.25195,9.08203 -3.3696,0.61506 -6.00681,1.39165 -6.26172,1.81836 A 150,150 0 0 0 300,150 150,150 0 0 0 150,0 Z m 76.64648,87.150391 C 222.45811,86.993006 216,89.400335 216,91.996094 c 0,1.718638 7.26897,5.966605 10.25,5.990234 0.96249,0.0076 2.67267,-0.908977 3.80078,-2.037109 2.06994,-2.069908 1.96304,-4.876887 -0.29492,-7.699219 -0.56841,-0.710475 -1.71325,-1.047148 -3.10938,-1.099609 z M 120.80469,99 c 7.67403,0 12.36599,6.3261 14.73047,19.86328 0.73356,4.1999 1.61664,8.37419 1.96289,9.27539 0.92742,2.41398 -1.29115,13.3348 -3.91407,19.26563 -3.01428,6.81582 -12.16344,16.98082 -28.08398,31.19922 -33.17794,29.63066 -49.907986,53.70506 -53.957031,77.64648 -0.348851,2.06253 -1.064893,3.75 -1.591797,3.75 -0.526866,0 -3.929441,-3.03748 -7.560547,-6.75 -10.136239,-10.36358 -9.975057,-9.97162 -7.34375,-17.9668 C 41.950938,214.30565 56.72527,194.42653 89.353516,162.20508 111.54966,140.28569 114.2433,135.57949 110.37695,125.5 106.24839,114.7368 106.92801,108.83761 112.99219,102.77344 116.11079,99.654821 117.46423,99 120.80469,99 Z m 35.33398,200.78125 c -3.19763,0.0742 -6.50711,0.0983 -9.83008,0.0859 A 150,150 0 0 0 150,300 a 150,150 0 0 0 6.13867,-0.21875 z"
       style="fill:#ff0000;fill-opacity:1;stroke-width:0.999999"
       id="path877" />
  </g>
</svg>
