<?xml version="1.0" encoding="UTF-8" standalone="no"?>
<svg
   xmlns:osb="http://www.openswatchbook.org/uri/2009/osb"
   xmlns:svg="http://www.w3.org/2000/svg"
   xmlns="http://www.w3.org/2000/svg"
   xmlns:xlink="http://www.w3.org/1999/xlink"
   xmlns:sodipodi="http://sodipodi.sourceforge.net/DTD/sodipodi-0.dtd"
   xmlns:inkscape="http://www.inkscape.org/namespaces/inkscape"
   inkscape:version="1.1-dev (a41a1eaca7, 2020-05-21)"
   sodipodi:docname="icon.svg"
   id="svg6"
   version="1.1"
   viewBox="0 0 105.83332 105.83334"
   height="400"
   width="400">
  <sodipodi:namedview
     height="400px"
     inkscape:current-layer="svg6"
     inkscape:window-maximized="1"
     inkscape:window-y="28"
     inkscape:window-x="0"
     inkscape:cy="182.27555"
     inkscape:cx="123.47391"
     inkscape:zoom="1.3434063"
     fit-margin-bottom="0"
     fit-margin-right="0"
     fit-margin-left="0"
     fit-margin-top="0"
     showgrid="false"
     id="namedview34"
     inkscape:window-height="941"
     inkscape:window-width="1920"
     inkscape:pageshadow="2"
     inkscape:pageopacity="0"
     guidetolerance="10"
     gridtolerance="10"
     objecttolerance="10"
     borderopacity="1"
     bordercolor="#666666"
     pagecolor="#ffffff"
     units="px"
     width="49px" />
  <defs
     id="defs2">
    <linearGradient
       id="linearGradient3165">
      <stop
         id="stop3161"
         offset="0"
         style="stop-color:#143030;stop-opacity:1" />
      <stop
         id="stop3163"
         offset="1"
         style="stop-color:#0e2727;stop-opacity:1" />
    </linearGradient>
    <linearGradient
       id="linearGradient3147">
      <stop
         id="stop3143"
         offset="0"
         style="stop-color:#dce1ca;stop-opacity:1;" />
      <stop
         id="stop3145"
         offset="1"
         style="stop-color:#acb984;stop-opacity:1" />
    </linearGradient>
    <linearGradient
       id="linearGradient3139">
      <stop
         id="stop3135"
         offset="0"
         style="stop-color:#2a251f;stop-opacity:1;" />
      <stop
         id="stop3137"
         offset="1"
         style="stop-color:#1d1d1d;stop-opacity:1" />
    </linearGradient>
    <linearGradient
       id="linearGradient3131">
      <stop
         id="stop3127"
         offset="0"
         style="stop-color:#e48d83;stop-opacity:1;" />
      <stop
         id="stop3129"
         offset="1"
         style="stop-color:#9d2e24;stop-opacity:1" />
    </linearGradient>
    <linearGradient
       osb:paint="solid"
       id="linearGradient3112">
      <stop
         id="stop3110"
         offset="0"
         style="stop-color:#e48d83;stop-opacity:1;" />
    </linearGradient>
    <linearGradient
       gradientUnits="userSpaceOnUse"
       y2="438.53183"
       x2="448.53891"
       y1="371.30002"
       x1="387.75659"
       id="linearGradient3133"
       xlink:href="#linearGradient3131" />
    <linearGradient
       gradientUnits="userSpaceOnUse"
       y2="82.807358"
       x2="131.21761"
       y1="62.225071"
       x1="101.93898"
       id="linearGradient3141"
       xlink:href="#linearGradient3139" />
    <linearGradient
       gradientUnits="userSpaceOnUse"
       y2="73.862129"
       x2="137.25623"
       y1="64.691696"
       x1="118.16811"
       id="linearGradient3149"
       xlink:href="#linearGradient3147" />
    <linearGradient
       gradientUnits="userSpaceOnUse"
       y2="67.131081"
       x2="120.4819"
       y1="65.148361"
       x1="118.76462"
       id="linearGradient3167"
       xlink:href="#linearGradient3165" />
  </defs>
  <g
     transform="translate(-50.52117,-11.728994)"
     style="display:inline"
     id="layer7">
    <path
       transform="scale(0.26458333)"
       d="m 288.40234,275.15039 c 0,0 4.57126,92.57787 102.68946,165.74609 v 0.17188 c 0.0382,-0.0302 0.0771,-0.0576 0.11523,-0.0859 0.008,0.008 0.0139,0.0118 0.0215,0.0156 v -0.0332 c 59.71166,-44.52791 84.74997,-96.20887 95.2246,-129.87304 13.18672,5.75251 28.4961,-3.52539 28.4961,-3.52539 -4.75249,-6.78796 -13.89012,-6.02954 -21.36524,-3.87891 13.63854,-6.70685 15.08008,-19.27148 15.08008,-19.27148 -0.45014,-0.0257 -0.89881,-0.0302 -1.3457,-0.01 -6.13128,0.28257 -11.84341,4.75359 -16.33203,9.66406 2.57241,-11.76549 2.93359,-18.85156 2.93359,-18.85156 l -102.6914,6.63477 v -0.0625 z"
       style="fill:url(#linearGradient3133);fill-opacity:1;fill-rule:nonzero;stroke:none;stroke-width:1.314px;stroke-linecap:butt;stroke-linejoin:miter;stroke-opacity:1"
       id="path1119" />
  </g>
  <g
     transform="translate(-50.52117,-11.728994)"
     style="display:inline;opacity:1;mix-blend-mode:normal"
     id="layer2">
    <path
       d="m 67.649854,14.126899 c -0.513329,-0.0065 -0.894575,0.178144 -1.110012,0.592727 0,0 -8.158578,5.325706 3.285072,34.714161 4.22153,10.841319 -4.135565,25.130959 17.941022,40.406319 0,0 3.026966,8.073692 14.788764,8.394322 v 0.005 c 0.0469,10e-4 0.0908,-4.6e-4 0.13746,5.2e-4 0.19063,0.004 0.38769,0.003 0.58291,0.003 0.19519,-5e-5 0.39228,0.002 0.58291,-0.003 0.0466,-9.8e-4 0.0905,6.9e-4 0.13746,-5.2e-4 v -0.005 c 11.76189,-0.32058 14.78876,-8.394322 14.78876,-8.394322 22.07659,-15.27536 13.72001,-29.565 17.94154,-40.406319 11.44365,-29.388453 3.28456,-34.714161 3.28456,-34.714161 -2.29798,-4.422222 -23.4146,17.357082 -23.4146,17.357082 -3.61542,-2.145556 -11.11471,-1.594646 -13.32063,-1.377696 -2.20648,-0.216979 -9.704927,-0.76772 -13.320119,1.377696 0,0 -17.342932,-17.887405 -22.305097,-17.949809 z"
       style="fill:url(#linearGradient3141);fill-opacity:1;stroke:none;stroke-width:0.264583px;stroke-linecap:butt;stroke-linejoin:miter;stroke-opacity:1"
       id="path75" />
  </g>
  <g
     transform="translate(-50.52117,-11.728994)"
     style="opacity:1"
     id="layer5">
    <path
       id="path1024"
       d="m 102.84999,83.547565 0.20181,7.136138 c 0,0 4.78339,-3.52824 5.19388,-6.120122 0,0 1.14214,-2.816657 -5.39569,-1.016016 z"
       style="fill:none;stroke:none;stroke-width:0.264583px;stroke-linecap:butt;stroke-linejoin:miter;stroke-opacity:1" />
    <path
       d="m 106.32111,82.947929 c -0.87509,-0.02519 -1.98408,0.220745 -3.18084,0.652386 v 0.0052 c -2.71584,-0.970986 -4.967536,-0.978947 -5.044824,0.988438 -0.09743,2.480341 4.803994,5.706461 5.044824,5.863499 v 0.0094 c 0,0 0.008,-0.0046 0.008,-0.0047 0.005,0.0027 0.0363,0.02441 0.0363,0.02441 v -0.04881 c 0.24027,-0.156671 5.14274,-3.383479 5.04531,-5.863971 -0.0437,-1.112605 -0.78271,-1.593414 -1.90784,-1.625802 z"
       style="fill:#808080;stroke:none;stroke-width:0.240805px;stroke-linecap:butt;stroke-linejoin:miter;stroke-opacity:1"
       id="path1050" />
  </g>
  <g
     transform="translate(-50.52117,-11.728994)"
     style="display:inline"
     id="layer3">
    <path
       id="path964"
       d="m 111.09711,74.48872 c -2.95479,-1.966161 -7.38907,-10.766743 -3.29866,-16.181425 3.42725,-4.536842 5.92881,-10.660131 11.61128,-5.423858 3.02563,2.788035 6.61592,-1.13857 8.92468,4.564621 1.2241,3.02403 4.24512,3.754975 2.10778,11.383816 -1.0558,3.768422 -5.16641,8.628655 -8.41217,5.57903 -2.36773,-2.224641 -3.96316,4.715586 -10.93291,0.07782 z"
       style="fill:url(#linearGradient3149);fill-opacity:1;stroke:none;stroke-width:0.230076px;stroke-linecap:butt;stroke-linejoin:miter;stroke-opacity:1" />
    <path
       id="path1013"
       d="m 117.12667,31.417598 c 0,0 -22.49536,-2.56806 -26.405635,-8.936732 0,0 -1.0491,-1.217767 -2.73341,0.463358 -0.703129,0.701801 -2.245895,10.596046 2.563333,15.483643 3.844749,3.9074 -1.223526,8.980988 5.695955,7.713242 3.357501,-0.61514 22.568427,-0.574765 20.879757,-14.723511 z"
       style="fill:#dce1ca;fill-opacity:1;stroke:none;stroke-width:0.245231px;stroke-linecap:butt;stroke-linejoin:miter;stroke-opacity:1" />
  </g>
  <g
     transform="translate(-50.52117,-11.728994)"
     style="display:inline"
     id="layer4">
    <path
       id="path967"
       d="m 125.28279,60.671899 c 0,0 -7.75536,-4.589293 -11.11986,0.869366 0,0 -3.17846,3.357018 -2.92103,7.222825 0.1591,2.389219 13.89907,3.437512 14.04089,-8.092191 z"
       style="fill:url(#linearGradient3167);fill-opacity:1;stroke:none;stroke-width:0.264583px;stroke-linecap:butt;stroke-linejoin:miter;stroke-opacity:1" />
  </g>
</svg>
